<?xml version="1.0" encoding="utf-8"?>
<!-- Generator: Adobe Illustrator 27.1.1, SVG Export Plug-In . SVG Version: 6.00 Build 0)  -->
<svg version="1.1" id="Layer_1" xmlns="http://www.w3.org/2000/svg" xmlns:xlink="http://www.w3.org/1999/xlink" x="0px" y="0px"
	 viewBox="0 0 200 200" style="enable-background:new 0 0 200 200;" xml:space="preserve">
<style type="text/css">
	.st0{fill:#1A1717;}
	.st1{fill:#FFFFFF;}
</style>
<path class="st0" d="M137.8,136.9c0,7.5-6.1,13.6-13.6,13.6s-13.6-6.1-13.6-13.6c0-7.5,6.1-13.6,13.6-13.6S137.8,129.4,137.8,136.9"
	/>
<path class="st0" d="M124.3,125.6c-6.2,0-11.3,5.1-11.3,11.3s5.1,11.3,11.3,11.3c6.2,0,11.3-5.1,11.3-11.3S130.5,125.6,124.3,125.6
	 M124.3,152.7c-8.7,0-15.8-7.1-15.8-15.8c0-8.7,7.1-15.8,15.8-15.8s15.8,7.1,15.8,15.8C140.1,145.6,133,152.7,124.3,152.7"/>
<path class="st0" d="M178.5,136.9c0,7.5-6.1,13.6-13.6,13.6s-13.6-6.1-13.6-13.6c0-7.5,6.1-13.6,13.6-13.6S178.5,129.4,178.5,136.9"
	/>
<path class="st0" d="M165,125.6c-6.2,0-11.3,5.1-11.3,11.3s5.1,11.3,11.3,11.3s11.3-5.1,11.3-11.3S171.2,125.6,165,125.6 M165,152.7
	c-8.7,0-15.8-7.1-15.8-15.8c0-8.7,7.1-15.8,15.8-15.8s15.8,7.1,15.8,15.8C180.8,145.6,173.7,152.7,165,152.7"/>
<path class="st1" d="M173.7,135.5c0,5.8-4.7,10.4-10.4,10.4s-10.4-4.7-10.4-10.4s4.7-10.4,10.4-10.4S173.7,129.7,173.7,135.5"/>
<path class="st0" d="M163.3,127.3c-4.5,0-8.2,3.7-8.2,8.2s3.7,8.2,8.2,8.2s8.2-3.7,8.2-8.2C171.5,131,167.8,127.3,163.3,127.3
	 M163.3,148.1c-7,0-12.6-5.7-12.6-12.6s5.7-12.6,12.6-12.6s12.6,5.7,12.6,12.6S170.3,148.1,163.3,148.1"/>
<path class="st1" d="M135.3,135.5c0,5.8-4.7,10.4-10.4,10.4s-10.4-4.7-10.4-10.4s4.7-10.4,10.4-10.4S135.3,129.7,135.3,135.5"/>
<path class="st0" d="M124.9,127.3c-4.5,0-8.2,3.7-8.2,8.2s3.7,8.2,8.2,8.2c4.5,0,8.2-3.7,8.2-8.2C133,131,129.4,127.3,124.9,127.3
	 M124.9,148.1c-7,0-12.7-5.7-12.7-12.6s5.7-12.6,12.7-12.6s12.6,5.7,12.6,12.6S131.9,148.1,124.9,148.1"/>
<path class="st0" d="M192.7,163.8c-0.9,0-2-0.3-3.3-1.2c-2-1.4-4.1-4-5.8-7.2c-0.8-1.6-2.7-5.5-2.4-8.6l4.5,0.4
	c-0.2,2,1.8,6.9,4.6,10.2c1.1,1.4,2,1.9,2.3,2c0.2-0.3,0.6-1.1,0.8-3.3c1-12.3-1.8-22.4-8.4-30.1c-10.4-12-28-15.4-40.8-16.2
	c-11.5-0.7-21.9,2.3-30.9,8.9c-6.2,4.5-9.6,9.3-10.2,10.2c-0.5,1.1-2.8,6.8-4.7,12.9c-3.7,11.4-2.8,14.2-2.6,14.7
	c1.6,0.4,2.4,0,2.9-0.3c1.7-1.1,3.1-4.4,3.7-8.9l4.4,0.6c-0.8,6.1-2.7,10.1-5.6,12.1c-1.9,1.3-4.2,1.6-6.7,0.9
	c-0.8-0.2-1.9-0.8-2.6-2.3c-0.9-1.9-1.6-5.8,2.5-18.6c2.2-6.7,4.7-12.6,4.8-12.9l0.1-0.2l0.1-0.2c0.2-0.2,3.8-5.9,11.3-11.4
	c4.4-3.2,9.1-5.7,14.1-7.4c6.3-2.1,13-3,19.9-2.6c19.7,1.2,34.9,7.3,43.9,17.8c7.4,8.6,10.6,19.8,9.5,33.4c-0.3,3.8-1.4,6.1-3.4,7
	C194,163.6,193.4,163.8,192.7,163.8"/>
<path class="st1" d="M109.3,165.5c0,0,1.2-25.7,35-24.2s31.7,18.8,34.6,24.2"/>
<path class="st0" d="M176.8,166.5c-0.6-1.1-1-2.5-1.4-4.1c-1-3.5-2.1-7.8-6.2-11.5c-5-4.5-13.4-7-25.1-7.5
	c-13.2-0.6-22.7,3-28.2,10.6c-4.1,5.6-4.4,11.4-4.4,11.5l-4.5-0.2c0-0.3,0.4-7.2,5.2-13.9c2.9-3.9,6.7-7,11.3-9.1
	c5.7-2.6,12.7-3.7,20.7-3.4c12.9,0.6,22,3.4,27.8,8.6c5.1,4.5,6.5,9.8,7.6,13.6c0.4,1.3,0.7,2.5,1.1,3.2L176.8,166.5L176.8,166.5z"
	/>
<path class="st0" d="M149.1,161.7c0,2.1-2.2,3.7-4.9,3.7s-4.9-1.7-4.9-3.7c0-2.1,2.2-3.7,4.9-3.7S149.1,159.7,149.1,161.7"/>
<path class="st0" d="M144.2,160.2c-1.6,0-2.7,0.9-2.7,1.5c0,0.6,1,1.5,2.7,1.5s2.7-0.9,2.7-1.5C146.8,161.1,145.8,160.2,144.2,160.2
	 M144.2,167.7c-1.8,0-3.5-0.6-4.8-1.6c-1.5-1.1-2.3-2.7-2.3-4.4s0.8-3.3,2.3-4.4c1.3-1,3-1.6,4.8-1.6s3.5,0.6,4.8,1.6
	c1.5,1.1,2.3,2.7,2.3,4.4s-0.8,3.3-2.3,4.4C147.7,167.2,146,167.7,144.2,167.7"/>
<path class="st1" d="M98.8,163c4.3-10.7-3.2-46.5-3.2-46.5s-0.7-5.7-8.8-7.5c-8.1-0.2-9.8,9.4-10.4,13.2c-3-1.4-19.3-5.1-49.8-1.3
	c-3.9-8.4-4.8-11.4-10.8-12.1S7,120,7,120s-4.8,36.4-1.9,44.3"/>
<path class="st0" d="M3.1,165c-0.8-2.1-1.1-5.7-1.1-11.1c0-4.1,0.3-9.1,0.8-15c0.8-10,2-19.2,2-19.3v-0.1l0-0.1
	c0-0.1,0.8-3.3,2.3-6.4c3-6,6.5-6.9,8.9-6.6c6.8,0.8,8.4,4.3,11.6,11.3c0.1,0.2,0.2,0.4,0.3,0.6c25-2.9,40.4-0.9,46.7,0.8
	c0.4-2,1.1-4.2,2.1-6.2c2.2-4.2,5.7-6.4,10-6.3h0.2l0.2,0.1c8.9,1.9,10.3,8.2,10.5,9.2c0.2,0.8,1.9,9.5,3.2,19.4
	c1.8,14.1,1.8,23.6-0.2,28.4l-4.2-1.7c3.3-8.2-1.2-35.4-3.3-45.2l0-0.2c-0.1-0.4-0.9-4.1-6.8-5.5c-4.2,0-6.7,3.6-7.9,11.3l-0.5,3
	l-2.7-1.3c-0.9-0.4-5.3-1.8-13.8-2.4c-6.9-0.5-18.5-0.7-34.7,1.3l-1.6,0.2l-0.7-1.5c-0.3-0.7-0.7-1.4-1-2.1
	c-3.2-6.9-3.9-8.3-8.1-8.8c-3-0.3-5.6,6.2-6.3,9.4c-0.1,1.1-1.2,9.7-2,19c-1.4,17.1-0.6,22.5,0,24.2L3.1,165L3.1,165z"/>
<path class="st0" d="M88.5,163.3c-1.3-8.8-7.5-29.4-37.9-29.5h-0.2c-12.8,0-22.5,4.9-29,14.7c-4.9,7.4-5.9,14.8-5.9,14.8l-4.4-0.6
	c0-0.3,1.2-8.5,6.6-16.7c3.2-4.9,7.3-8.7,12-11.5c5.9-3.4,12.8-5.2,20.7-5.2c0.1,0,0.2,0,0.2,0c8,0,15,1.4,21,4.1
	c5.1,2.2,9.3,5.5,12.8,9.5c6,7.2,8,15.5,8.6,19.8L88.5,163.3L88.5,163.3z"/>
<path class="st0" d="M35,151.4c0,2.3-1.1,4.2-2.5,4.2s-2.5-1.9-2.5-4.2c0-2.3,1.1-4.2,2.5-4.2C33.9,147.2,35,149.1,35,151.4"/>
<path class="st0" d="M73.1,151.4c0,2.3-1.1,4.2-2.4,4.2s-2.4-1.9-2.4-4.2c0-2.3,1.1-4.2,2.4-4.2S73.1,149.1,73.1,151.4"/>
</svg>
