<?xml version="1.0" encoding="utf-8"?>
<!-- Generator: Adobe Illustrator 27.1.1, SVG Export Plug-In . SVG Version: 6.00 Build 0)  -->
<svg version="1.1" id="Layer_1" xmlns="http://www.w3.org/2000/svg" xmlns:xlink="http://www.w3.org/1999/xlink" x="0px" y="0px"
	 viewBox="0 0 200 200" style="enable-background:new 0 0 200 200;" xml:space="preserve">
<style type="text/css">
	.st0{fill:#1A1717;}
</style>
<path class="st0" d="M46.5,101.3l9.4,5.5c0,0-17.2,13.7-5.2,28.9l0,0l-1-1.2l0,0l-5-6.2l-0.2,0.4l-10-11.2c0,0,0-11.6,4.1-14.8
	l-0.1-0.4l8-1.1L46.5,101.3L46.5,101.3z"/>
<polygon class="st0" points="50.7,135.7 54.8,140.7 37.6,140.7 44.5,128.5 49.7,134.4 49.7,134.4 "/>
<path d="M53.2,140.5c-0.5,0-1.1-0.2-1.5-0.6c-1-1-1.8-1.9-2.6-2.9c-5.4-6.9-6.2-14.7-2.1-22.4c3-5.6,7.4-9.2,7.6-9.4
	c0.4-0.3,0.8-0.4,1.3-0.4l100.9-0.9h0c1.1,0,2.1,0.9,2.1,2c0,1.1-0.9,2.1-2.1,2.1l-100.2,0.9c-2.7,2.4-13.9,13.4-4.3,25.6
	c0.5,0.6,1.1,1.3,1.7,1.9l102.8-3.2c1.1,0,2.1,0.9,2.1,2c0,1.1-0.9,2.1-2,2.1L53.2,140.5L53.2,140.5"/>
<path d="M194.9,110.7c-0.1,0-0.3,0-0.4-0.1c-0.2-0.1-23.1-4.9-44.3-8.1c-28.6-4.3-33.9-2.5-34.8-1.8c-6.3,4.5-12.8,6.8-19.1,6.8
	c-10.5,0-17.7-6.2-20-8.6l-71,10c-1.1,0.2-2.2-0.6-2.3-1.8c-0.2-1.1,0.6-2.2,1.8-2.3l72-10.1c0.7-0.1,1.4,0.2,1.9,0.7
	c0.1,0.1,6.9,8,17.6,8c5.5,0,11.1-2,16.7-6c2.3-1.6,8.7-3.2,37.8,1.1c21.3,3.2,44.3,8.1,44.6,8.2c1.1,0.2,1.8,1.3,1.6,2.4
	C196.7,110,195.9,110.7,194.9,110.7"/>
<path d="M10.5,88.5L7.8,98.6l82.4-5.3c0,0,0.1,0,0.1,0c0,0,3.4,0,5.7-0.6c0.2-0.1,0.4-0.1,0.5-0.2c-5.5-5.7-21.2-9-43.3-9
	C34.3,83.5,15.8,86.1,10.5,88.5 M5.1,102.9c-0.6,0-1.2-0.3-1.6-0.8c-0.4-0.5-0.6-1.2-0.4-1.8l3.7-13.8c0.1-0.5,0.5-1,0.9-1.2
	c5.2-3.2,26.1-5.9,45.6-5.9c14.1,0,38.9,1.4,46.9,10.9c0.1,0.2,0.3,0.3,0.4,0.5c0.3,0.5,0.6,1.1,0.6,1.7c0.1,1.1-0.2,3.2-4.1,4.2
	c-2.6,0.7-6.1,0.7-6.7,0.7l-85.2,5.5C5.2,102.9,5.1,102.9,5.1,102.9"/>
<path d="M122.1,92.1c6.3,0,14.9,0.8,25.6,2.4c16.6,2.5,34.2,6.3,41.5,7.9l-3.7-12.3c-16.1-4.3-31-6.4-44.4-6.4
	c-26.5,0-38.1,8.6-38.2,8.7l-1.9,1.4l8.1,1.2C111.2,93,115.3,92.1,122.1,92.1 M192.2,107.2c-0.2,0-0.3,0-0.5-0.1
	c-0.2-0.1-23.3-5.4-44.7-8.6c-10.5-1.6-18.9-2.4-25-2.4c-9.1,0-10.1,1.8-10.2,1.9c-0.4,0.8-1.3,1.2-2.1,1.1l-14.2-2
	c-0.8-0.1-1.5-0.7-1.7-1.5c-0.2-0.8,0.1-1.7,0.7-2.2l5.8-4.4c0.5-0.4,12.6-9.5,40.7-9.5c14,0,29.7,2.3,46.5,6.9
	c0.7,0.2,1.2,0.7,1.4,1.4l5.1,16.8c0.2,0.7,0,1.5-0.5,2C193.3,107,192.8,107.2,192.2,107.2"/>
<path d="M49.7,136.5c-0.6,0-1.1-0.2-1.5-0.7l-15.3-17.1c-0.3-0.4-0.5-0.9-0.5-1.4c0-1.3,0.1-12.8,4.9-16.4c0.9-0.7,2.2-0.5,2.9,0.4
	c0.7,0.9,0.5,2.2-0.4,2.9c-2.2,1.7-3.2,8-3.3,12.4L51.2,133c0.8,0.8,0.7,2.1-0.2,2.9C50.7,136.3,50.2,136.5,49.7,136.5"/>
<path d="M37.6,142.8c-0.3,0-0.7-0.1-1-0.3c-1-0.6-1.3-1.8-0.8-2.8l7-12.5c0.3-0.6,1-1,1.6-1.1c0.7-0.1,1.3,0.2,1.8,0.8l10.1,12.5
	c0.7,0.9,0.6,2.2-0.3,2.9c-0.9,0.7-2.2,0.6-2.9-0.3L45,131.8l-5.5,9.9C39,142.4,38.3,142.8,37.6,142.8"/>
<path d="M39.5,173.5c-0.4,0-0.8-0.1-1.2-0.4c-14.5-10.1-3.1-32.4-2.6-33.4c0.3-0.7,1.1-1.1,1.8-1.1h111c1.1,0,2.1,0.9,2.1,2.1
	s-0.9,2.1-2.1,2.1H38.9c-1.9,4.2-7.9,19.5,1.3,26.6l108.4-2.7c1.1,0,2.1,0.9,2.1,2s-0.9,2.1-2,2.1L39.5,173.5L39.5,173.5"/>
<path d="M148.6,170.7c-0.6,0-1.2-0.3-1.6-0.8c-13.9-17.4,0.1-30.6,0.2-30.8c0.8-0.8,2.1-0.7,2.9,0.1c0.8,0.8,0.7,2.1-0.1,2.9
	c-0.5,0.4-11.2,10.9,0.2,25.2c0.7,0.9,0.6,2.2-0.3,2.9C149.5,170.6,149.1,170.7,148.6,170.7"/>
<path d="M156.9,137.3c-0.6,0-1.3-0.3-1.7-0.9c-4.6-6.5-6.1-14.1-4.3-21.9c0.9-3.7,2.3-6.6,3.2-8.3l-8.3-7.1c-0.9-0.7-1-2-0.2-2.9
	c0.7-0.9,2-1,2.9-0.2l9.7,8.2c0.8,0.7,1,1.9,0.3,2.8c-0.4,0.6-9.5,13.7,0,26.9c0.7,0.9,0.4,2.2-0.5,2.9
	C157.7,137.2,157.3,137.3,156.9,137.3"/>
<path d="M98.6,94.2c-0.6,0-1.2-0.3-1.6-0.8c-0.7-0.9-0.6-2.2,0.3-2.9l0.2-0.2c3.3-2.6,33.7-24.6,85.4-14c1.1,0.2,1.8,1.3,1.6,2.4
	c-0.2,1.1-1.3,1.8-2.4,1.6c-50-10.2-78.9,10.8-82,13.2l-0.2,0.1C99.6,94,99.1,94.2,98.6,94.2"/>
<path d="M148.6,142.8c-0.7,0-1.4-0.4-1.8-1.1l-2.9-5.2c-0.6-1-0.2-2.2,0.8-2.8c1-0.6,2.2-0.2,2.8,0.8l2.9,5.2c0.6,1,0.2,2.3-0.8,2.8
	C149.3,142.7,148.9,142.8,148.6,142.8"/>
<path d="M56,108.8c-0.3,0-0.7-0.1-1-0.3l-9.4-5.5c-1-0.6-1.3-1.8-0.8-2.8c0.6-1,1.8-1.3,2.8-0.7L57,105c1,0.6,1.3,1.8,0.7,2.8
	C57.4,108.5,56.7,108.8,56,108.8"/>
<path d="M98.6,93.7c-1,0-1.8-0.7-2-1.7c-3.4-16.7-55.4-17.1-76.3-15.8l-10,12.2c-0.7,0.9-2,1-2.9,0.3c-0.9-0.7-1-2-0.3-2.9
	l10.5-12.8c0.4-0.4,0.9-0.7,1.5-0.8c0.2,0,19.1-1.2,38.2,0.3c26.6,2.1,41.1,8.5,43.2,18.8c0.2,1.1-0.5,2.2-1.6,2.4
	C98.9,93.7,98.8,93.7,98.6,93.7"/>
</svg>
