<?xml version="1.0" encoding="UTF-8"?>
<svg id="Layer_1" data-name="Layer 1" xmlns="http://www.w3.org/2000/svg" viewBox="0 0 200 200">
  <defs>
    <style>
      .cls-1 {
        fill: #fff;
      }

      .cls-2 {
        fill: #171f23;
      }

      .cls-3 {
        fill: #231f20;
      }
    </style>
  </defs>
  <path class="cls-1" d="m194.27,55.39c-.65-12.73-6.52-24.39-10-31.18l-1.96-3.82.22,3.4c.43,4.45,1.52,20.15-3.26,29.06-6.09,12.09-23.49,11.03-29.36,10.61h-.44c-9.35-.64-40.01-1.7-49.58-1.7-12.4,0-26.1,1.06-37.18,1.91-5.44.43-10,.64-13.27.85h-1.09c-15.44,1.49-25.22-2.97-29.14-13.15-2.4-6.36-2.18-18.66-2.18-24.6v-4.24l-1.3,2.12c-2.83,5.3-8.26,15.06-10,31.18-1.09,19.3,9.13,26.09,16.74,29.49,8.05,3.82,16.53,4.24,19.14,4.45h.22c.44,0,1.09,0,1.74.21.87,0,1.74,0,2.61.21-1.31.21-3.26.64-5,.85-1.74.21-3.48.64-4.35.85-1.96.21-9.57,2.12-13.92,3.39-3.48,1.27-7.39,2.97-7.39,2.97l-.65.42.44.64s1.3,1.7,2.61,2.97c2.83,2.76,10.44,7.42,19.57,6.36,7.39-1.06,11.31-2.55,12.83-3.4.65,1.49,1.74,5.09,2.83,7.85,3.26,8.06,10.87,23.54,13.7,28.85,2.39,4.24,4.57,8.06,6.09,10.61l.65.85c-.44,1.7-1.74,2.76-2.61,3.61-.22.21-.43.21-.65.42l-.22.21v.21c0,1.48-.43,14.85,8.92,24.6l.22.22c4.78,1.69,10.66,3.39,20.44,3.39s18.27-2.12,21.31-3.61v-.21h.22c6.52-7.42,9.35-18.66,9.57-22.91v-.21l-.22-.21c-.21-.21-.43-.21-.65-.43-.87-1.06-2.18-2.12-2.83-4.88.65-1.27,2.18-4.45,3.48-7,.87-1.49,1.31-2.76,1.74-3.4,2.61-5.3,10.66-22.06,13.92-29.91,1.95-5.09,3.05-7.64,3.7-8.49,1.3.63,5.22,2.33,12.4,2.97,9.13,1.07,18.05-5.09,20.44-8.48.43-.43,1.31-1.27,1.31-1.27l.43-.64-.65-.42c-.22,0-.43,0-1.74-.64l-10.44-3.18c-1.31-.64-7.61-1.91-12.18-2.76l-3.48-.85,1.09-.21c10.66-1.7,38.93-6.58,37.19-33.94"/>
  <path class="cls-2" d="m194.27,55.39c-.65-12.73-6.52-24.39-10-31.18l-1.96-3.82.22,3.4c.43,4.45,1.52,20.15-3.26,29.06-6.09,12.09-23.49,11.03-29.36,10.61h-.44c-9.35-.64-40.01-1.7-49.58-1.7-12.4,0-26.1,1.06-37.18,1.91-5.44.43-10,.64-13.27.85h-1.09c-15.44,1.49-25.22-2.97-29.14-13.15-2.4-6.36-2.18-18.66-2.18-24.6v-4.24l-1.3,2.12c-2.83,5.3-8.26,15.06-10,31.18-1.09,19.3,9.13,26.09,16.74,29.49,8.05,3.82,16.53,4.24,19.14,4.45h.22c.44,0,1.09,0,1.74.21.87,0,1.74,0,2.61.21-1.31.21-3.26.64-5,.85-1.74.21-3.48.64-4.35.85-1.96.21-9.57,2.12-13.92,3.39-3.48,1.27-7.39,2.97-7.39,2.97l-.65.42.44.64s1.3,1.7,2.61,2.97c2.83,2.76,10.44,7.42,19.57,6.36,7.39-1.06,11.31-2.55,12.83-3.4.65,1.49,1.74,5.09,2.83,7.85,3.26,8.06,10.87,23.54,13.7,28.85,2.39,4.24,4.57,8.06,6.09,10.61l.65.85c-.44,1.7-1.74,2.76-2.61,3.61-.22.21-.43.21-.65.42l-.22.21v.21c0,1.48-.43,14.85,8.92,24.6l.22.22c4.78,1.69,10.66,3.39,20.44,3.39s18.27-2.12,21.31-3.61v-.21h.22c6.52-7.42,9.35-18.66,9.57-22.91v-.21l-.22-.21c-.21-.21-.43-.21-.65-.43-.87-1.06-2.18-2.12-2.83-4.88.65-1.27,2.18-4.45,3.48-7,.87-1.49,1.31-2.76,1.74-3.4,2.61-5.3,10.66-22.06,13.92-29.91,1.95-5.09,3.05-7.64,3.7-8.49,1.3.63,5.22,2.33,12.4,2.97,9.13,1.07,18.05-5.09,20.44-8.48.43-.43,1.31-1.27,1.31-1.27l.43-.64-.65-.42c-.22,0-.43,0-1.74-.64l-10.44-3.18c-1.31-.64-7.61-1.91-12.18-2.76l-3.48-.85,1.09-.21c10.66-1.7,38.93-6.58,37.19-33.94"/>
  <path class="cls-3" d="m80.34,180.99c4.4,1.54,9.94,3.13,19.34,3.13,8.7,0,15.93-1.65,19.32-2.94v-.88h1.27c5.26-6.41,7.97-15.75,8.45-20.25-.07-.06-.15-.13-.22-.2l-.15-.16c-.13-.16-.27-.32-.42-.48-.9-1.01-2.14-2.41-2.79-5.17l-.16-.68.32-.62c.27-.52.68-1.36,1.17-2.35.7-1.42,1.54-3.14,2.31-4.65.47-.81.78-1.47,1.05-2.06.25-.54.47-1.01.73-1.41,2.5-5.09,10.57-21.87,13.82-29.69,2.17-5.64,3.17-7.91,3.95-8.92l1-1.3,1.49.73c1.62.79,5.3,2.21,11.68,2.77.67.08,1.31.12,1.94.12,7.46,0,14.72-4.98,16.68-7.77l.08-.12-10.43-3.2c-.68-.33-4.61-1.28-11.66-2.59l-12.17-2.97,9.75-1.9c16.03-2.55,37.07-8.63,35.59-31.92-.5-9.82-4.25-19.07-7.39-25.62.2,6.92-.25,17.1-3.87,23.85-3.9,7.75-12.76,11.87-25.59,11.87-2.14,0-3.96-.11-5.6-.23h-.5c-9.53-.65-40.03-1.7-49.44-1.7-12.14,0-25.69,1.03-36.56,1.87l-.47.03c-3.73.29-7.1.49-9.82.64-1.28.07-2.44.14-3.47.21h-1.12c-16.35,1.55-26.85-3.33-31.1-14.41-2.11-5.62-2.3-15.13-2.31-21.79-2.78,5.66-6.05,13.88-7.34,25.77-1.01,17.97,8.41,24.32,15.59,27.52,7.24,3.44,14.98,4.02,17.9,4.24l.63.04c.47,0,1.2,0,2.03.21.86,0,1.81.03,2.8.27l9.28,2.26-9.43,1.53c-.44.07-.95.17-1.5.27-1.12.21-2.38.44-3.59.59-1.62.2-3.3.61-4.11.81l-.26.05c-1.63.18-8.8,1.93-13.5,3.3-2.04.75-4.23,1.65-5.66,2.24.41.49.93,1.06,1.43,1.55,2.11,2.06,8.07,5.95,15.5,5.95.81,0,1.63-.05,2.43-.14,8.23-1.18,11.5-2.84,12.08-3.16l1.93-1.08.88,2c.36.82.8,2.1,1.31,3.6.48,1.4,1.02,2.98,1.55,4.32,3.21,7.92,10.74,23.27,13.61,28.65,1.91,3.38,4.32,7.64,5.98,10.43l1.15,1.5-.23.9c-.52,2.03-1.91,3.34-2.82,4.21l-.31.3c-.1.1-.2.18-.29.25.04,4.57,1.02,14.73,8.25,22.38m19.34,7.01c-9.86,0-15.98-1.69-21.13-3.51l-.41-.15-.53-.52c-8.69-9.06-9.54-21.06-9.5-25.8v-1.19l.8-.78c.3-.29.59-.45.78-.54l.23-.22c.52-.5,1.05-1,1.41-1.6l-.12-.17c-1.69-2.82-4.15-7.17-6.11-10.65-2.92-5.48-10.55-21.02-13.81-29.07-.56-1.43-1.12-3.06-1.62-4.5-.17-.49-.33-.97-.48-1.42-2.11.81-5.69,1.85-11.42,2.68-10.11,1.17-18.27-3.99-21.27-6.91-1.39-1.35-2.74-3.1-2.79-3.18l-1.61-2.34,2.61-1.66c.16-.07,4.01-1.74,7.5-3.01l.13-.04c2.83-.83,7.34-2.01,10.65-2.76-3.44-.65-7.46-1.74-11.38-3.6-4.7-2.1-19.14-8.54-17.86-31.33,1.73-16.08,7.08-26.08,9.95-31.46l.27-.51,5.06-8.23v12.63c-.02,5.93-.04,16.97,2.05,22.55,3.14,8.18,10.26,12.16,21.74,12.16,1.69,0,3.48-.09,5.34-.27h.2s1.09-.01,1.09-.01c.9-.06,2.08-.13,3.37-.2,2.69-.16,6.05-.35,9.74-.64l.47-.04c10.95-.84,24.57-1.88,36.87-1.88,9.44,0,39.98,1.04,49.65,1.7h.51c1.59.12,3.34.23,5.38.23,11.37,0,18.79-3.28,22.05-9.75,4.68-8.71,3.37-24.87,3.07-28.02l-.83-12.97,6.33,12.35c3.33,6.49,9.53,18.59,10.21,31.95,1.49,23.39-17.53,31.29-30.47,34.36,2.9.61,5.49,1.22,6.58,1.68l10.61,3.26c.57.28.85.39.96.43h.46s2.84,1.83,2.84,1.83l-1.79,2.54-1.19,1.16c-2.47,3.33-10.59,9.29-19.85,9.29-.8,0-1.59-.05-2.36-.14-5.29-.47-8.98-1.52-11.28-2.4-.89,1.92-2.15,5.21-2.72,6.67-3.33,8-11.53,25.08-13.99,30.07l-.14.24c-.12.17-.31.59-.5,1-.29.63-.66,1.42-1.17,2.29-.71,1.39-1.54,3.08-2.23,4.49-.33.66-.62,1.27-.86,1.75.44,1.39,1.08,2.11,1.75,2.86.11.12.21.24.31.35.2.11.45.26.71.51l.8.78v1.01c-.21,4.25-2.98,15.91-9.79,23.87v.45l-.69.33-.17.2h-.24c-3.14,1.54-11.64,3.82-22.2,3.82"/>
  <path class="cls-1" d="m15.73,27.82c-.22,7.21-.22,14.85,1.52,21.64-1.52-1.28-3.26-2.97-4.78-4.24-1.52,1.48-2.82,3.18-4.35,4.66,1.53-7.63,4.13-15.06,7.61-22.06"/>
  <path class="cls-1" d="m191.44,46.7l.44,1.91-3.7-2.54c-1.74.64-3.26,1.7-5,2.54,1.31-6.79,1.52-14,1.09-21.21,3.26,6.16,5.22,12.73,7.18,19.31"/>
  <path class="cls-1" d="m100.11,113.94c3.92,5.94,11.31,7.64,17.83,5.94,2.61-.42,5-1.49,7.18-2.33-1.96,6.15-3.48,13.15-3.26,20.15,0,6.15,1.09,12.09,2.83,17.61-.87-.43-1.74-1.06-2.83-1.49-13.48-6.58-32.19-6.36-45.45.43.65-2.12,1.31-4.24,1.74-6.36,2.17-9.97.65-20.37-2.83-29.27,7.18,2.97,17.4,3.6,23.27-2.97.65-.42.87-1.06,1.52-1.7"/>
  <path class="cls-3" d="m99.62,148.37c8.21,0,16,1.68,22.53,4.87.51.19.99.45,1.43.7-1.59-5.49-2.39-10.95-2.39-16.25-.18-5.77.77-12.02,2.89-19.04-1.82.73-3.86,1.51-6.03,1.87-1.58.41-3.27.63-4.95.63-5.42,0-10.12-2.23-13.04-6.14-.02.03-.05.06-.07.1-.25.35-.52.71-.96,1.01-3.12,3.45-7.67,5.28-13.18,5.28-3.06,0-6.35-.59-9.4-1.67,3.43,9.48,4.27,19.47,2.35,28.28-.35,1.68-.82,3.35-1.31,4.98,6.43-2.99,14.23-4.63,22.14-4.63m26.15,8.19l-1.39-.67c-.35-.17-.69-.37-1.05-.58-.54-.31-1.1-.64-1.72-.88-6.4-3.12-13.99-4.75-21.99-4.75s-16.42,1.83-22.91,5.15l-1.4.71.45-1.47c.64-2.06,1.29-4.19,1.73-6.3,1.96-9,.97-19.27-2.8-28.92l-.55-1.42,1.43.59c3.27,1.35,6.92,2.1,10.27,2.1,3.59,0,8.62-.85,12.24-4.89l.13-.11c.28-.18.46-.43.69-.75.2-.26.42-.56.73-.87l.58-.57.44.67c2.63,3.99,7.16,6.27,12.44,6.27,1.56,0,3.13-.2,4.67-.6,2.21-.36,4.2-1.16,6.11-1.92l2.28-.89-.41,1.29c-2.36,7.42-3.41,13.94-3.23,19.94,0,5.69.94,11.55,2.8,17.43l.45,1.45Z"/>
  <path class="cls-1" d="m70.32,118.82c-.44,2.97-1.31,5.94-4.35,7-2.39.64-4.78-.64-6.31-2.33-.65-.85-1.3-1.7-1.52-2.76,3.7,2.33,8.7.43,11.96-1.91h.22Z"/>
  <path class="cls-1" d="m142.08,119.24c-.87,2.54-3.05,5.09-5.87,5.52-1.96.42-3.7-.64-5-2.34-.66-.85-.87-1.91-1.09-2.97,3.26,2.54,8.48,1.91,11.96-.21"/>
  <path class="cls-1" d="m134.69,126.46c1.3.21,2.83,0,4.13-.42-3.7,9.12-8.26,18.03-13.05,26.94-1.52-4.46-1.3-9.33-.87-14.21.65-5.94,2.17-11.67,3.92-17.18,1.09,2.33,3.26,4.46,5.87,4.88"/>
  <path class="cls-1" d="m75.1,152.97h0c-5.65-8.49-10-17.39-14.35-26.51,1.95.85,5,1.7,6.96.21,1.96-1.27,3.05-3.18,3.7-5.3,4.78,9.12,5.87,21.21,3.7,31.61"/>
  <path class="cls-1" d="m128.82,160.18c-1.09,7.85-3.92,14.85-9.13,21-11.74,4.67-27.83,5.09-39.58.21-5.87-6.36-8.04-14.21-8.48-22.7,12.61-8.91,32.4-10.82,46.75-4.45,3.7,1.7,7.18,3.4,10.44,5.94"/>
  <path class="cls-1" d="m177.53,96.33c-9.79-3.82-22.62-5.94-33.27-6.15-1.08-11.87-2.39-19.09-4.78-25.67-5.43-.42-30.23-1.27-39.58-1.27s-33.71,1.48-39.36,1.7c-2.17,6.36-4.78,14.21-5.87,25.88-10.88.64-25.66,3.61-35.45,7.21-1.52.63-2.18,1.06-2.18,1.06,1.53,1.7,6.96,8.06,17.18,8.27,3.26,0,9.35-.42,13.48-2.12,1.09-.63,3.26-1.49,3.26-1.49,0,0,.65,1.27,1.08,2.33,1.09,2.97,2.4,7.21,3.26,9.13,1.52,2.76,3.7,4.88,7.61,5.09,3.26,0,5.65-2.76,6.09-3.18-9.56-.64-13.48-5.52-14.13-13.15-2.4-.43-3.05-.64-3.26-1.7-.22-1.27.22-2.54,1.09-4.03,1.09-1.27,2.83-2.76,7.39-1.27,3.05.85,5.44,2.76,6.96,4.24,2.17,1.7,7.83,7.43,11.31,9.55,3.7,2.12,10.66,4.03,15.22-.43,4.57-4.24,5-7.84,5.65-9.97-7.83-.21-15-1.06-21.75-1.91-1.96-.21-1.09-2.12.43-1.7,0,0,12.62,1.7,21.53,1.7v-4.67c-5.22-.21-13.92-.64-22.18-2.33-1.74-.43-1.52-2.33.22-1.91,1.08.42,14.79,2.33,22.18,2.33v-5.94c-4.78.21-11.96-.42-21.96-1.91-1.74-.21-1.52-1.69,0-1.69,0,0,12.62,1.91,21.96,1.69v-4.67c0-1.7,1.53-1.91,1.53,0,0,.64.22,2.33.22,4.67,8.92-.21,16.96-1.27,20.66-1.91,2.18-.42,1.96,1.27.87,1.49-1.31.21-11.74,2.12-21.75,2.33,0,1.7.22,4.03.22,5.73,6.74-.21,14.35-.42,21.09-1.91,2.4-.43,2.61,1.49.44,1.7-6.52,1.06-15.87,2.12-21.53,2.33,0,1.48,0,3.39.22,4.67,10.65-.21,20.65-1.7,22.4-1.91,1.74-.42,2.17,1.49.22,1.7-1.74.21-14.35,1.91-22.4,1.91.87,2.75.87,6.58,4.78,9.75,3.92,3.18,10.22,2.97,14.79.42,3.48-1.91,8.92-7.84,10.88-9.55,1.74-1.48,5.65-4.88,10.87-4.88s5.22,2.76,5.43,3.39c.22.85.44,2.33-.65,2.97-.87.63-1.74.43-2.61.85-.65,4.03-1.96,8.7-5.44,11.24-3.48,2.55-9.13,2.97-9.13,2.97,0,0,.87.85,1.09,1.06.44.43,2.39,1.49,5,1.28,2.17-.21,5-1.91,6.09-3.18,1.74-2.12,3.26-6.79,4.57-9.75.43-1.06,1.52-2.97,1.74-3.82,1.09.43,1.52.64,3.48,1.49,4.13,1.48,9.35,2.12,12.61,2.12,5.22-.21,11.31-3.4,15.01-6.58.65-.64,1.74-2.12,1.74-2.12,0,0-3.48-1.28-4.57-1.49"/>
  <path class="cls-3" d="m56.72,95.7c1.05,0,2.25.22,3.59.66,2.51.7,4.95,2.18,7.22,4.4.71.55,1.88,1.62,3.23,2.86,2.55,2.34,5.73,5.24,7.96,6.6,2.38,1.37,5.31,2.19,7.83,2.19,2.65,0,4.86-.85,6.57-2.52,3.83-3.55,4.63-6.55,5.22-8.73.01-.05.03-.1.04-.15-7.44-.25-14.16-1.04-20.97-1.89-1.31-.14-1.74-.93-1.71-1.56.06-1.01,1.23-1.73,2.41-1.4.04,0,11.96,1.59,20.68,1.67v-3.4c-4.35-.18-13.34-.61-21.65-2.32-1.32-.32-1.81-1.26-1.72-1.99.1-.75.93-1.49,2.23-1.18.91.35,13.71,2.21,21.36,2.31v-4.62c-4.76.14-11.72-.51-21.4-1.94-1.28-.16-1.83-.92-1.78-1.6.05-.69.71-1.38,1.89-1.38.22.03,12.21,1.83,21.3,1.71v-4.03c0-2.57,2.85-2.83,2.85,0,0,.21.03.54.05.96.06.73.14,1.78.16,3.04,7.92-.23,15.62-1.15,19.89-1.88,1.7-.34,2.37.47,2.44,1.14.07.75-.51,1.46-1.33,1.62l-.48.08c-9.5,1.63-16.43,2.12-20.72,2.25.02.69.06,1.44.1,2.2.04.77.08,1.53.1,2.23,6.5-.21,13.84-.45,20.29-1.87.31-.05.57-.07.79-.07,1.3,0,1.92.68,1.95,1.35.04.71-.6,1.55-2.1,1.69-6.67,1.08-15.51,2.05-20.93,2.31,0,1.14.02,2.39.13,3.39,9.17-.22,17.9-1.38,20.81-1.77l.93-.12c.14-.04.36-.07.56-.07,1.06,0,1.65.69,1.69,1.36.04.71-.53,1.54-1.88,1.68l-.66.08c-9.01,1.15-16.05,1.76-20.95,1.82.09.36.18.74.27,1.13.55,2.41,1.17,5.14,4.07,7.49,1.78,1.45,4.16,2.21,6.87,2.21,2.48,0,5.02-.66,7.16-1.85,2.43-1.33,5.88-4.72,8.39-7.19.97-.96,1.81-1.78,2.37-2.27,1.82-1.55,5.91-5.04,11.31-5.04,5.06,0,5.78,2.76,6.01,3.66.02.07.04.13.05.18.38,1.49.19,2.43-.2,3.03l.47.18c.78.3,1.23.5,2.12.89l1.38.6c3.96,1.42,9.06,2.06,12.34,2.06,5.12-.2,11.15-3.47,14.57-6.41.31-.31.77-.88,1.12-1.33-1.2-.43-2.98-1.03-3.64-1.16-9.19-3.58-21.85-5.92-33.15-6.14h-.59s-.05-.59-.05-.59c-1.07-11.73-2.37-18.83-4.61-25.11-6.23-.44-30.21-1.24-39.1-1.24-6.74,0-20.99.75-30.42,1.25-3.66.19-6.69.35-8.45.43-1.98,5.81-4.62,13.71-5.69,25.31l-.05.55-.57.03c-10.88.64-25.71,3.66-35.25,7.17-.59.25-1.05.46-1.37.63,2.05,2.24,7.17,7.27,16.16,7.46,3.76,0,9.49-.54,13.21-2.07,1.04-.62,3.18-1.45,3.27-1.49l.44-.17c-.08-.17-.14-.37-.19-.59-.23-1.34.13-2.71,1.16-4.47.92-1.08,2.19-2.22,4.59-2.22m75.49,22.11l.13.12c.32.31,2.11,1.28,4.48,1.08,1.91-.18,4.6-1.74,5.64-2.95,1.2-1.46,2.34-4.34,3.35-6.88.39-.97.76-1.91,1.12-2.72.18-.42.46-1,.76-1.6.39-.79.84-1.68.95-2.12l.05-.2c-.12.11-.25.2-.37.27-.57.42-1.17.52-1.71.62-.23.04-.44.07-.64.14-.62,3.62-1.89,8.56-5.64,11.29-2.56,1.87-6.16,2.64-8.1,2.94m-80.58-14.2c.18.37.68,1.36,1.04,2.24.41,1.14.85,2.44,1.29,3.72.71,2.07,1.43,4.21,1.96,5.38,1.69,3.06,3.87,4.53,7.02,4.71,1.52,0,3.05-.69,4.59-2.02-8.09-.96-12.44-5.26-13.27-13.12-1.24-.23-2.1-.44-2.64-.9m11.3,17.34h-.04c-3.63-.2-6.22-1.92-8.16-5.43-.58-1.27-1.28-3.35-2.03-5.55-.43-1.27-.87-2.56-1.27-3.66-.25-.59-.56-1.26-.79-1.72-.71.29-1.9.8-2.6,1.21-5.11,2.11-12.41,2.21-13.82,2.21-6.82-.14-12.73-2.95-17.56-8.36l-.62-.69.63-.41s.72-.47,2.28-1.12c9.52-3.51,24.16-6.52,35.1-7.23,1.15-11.73,3.86-19.66,5.85-25.47l.14-.42.46-.02c1.66-.06,4.9-.23,8.89-.44,9.44-.5,23.71-1.26,30.49-1.26,9.14,0,34.14.85,39.64,1.28l.43.03.14.39c2.32,6.39,3.67,13.5,4.77,25.25,11.3.3,23.86,2.65,32.91,6.19,1.01.18,4.41,1.42,4.55,1.48l.81.29-.51.69c-.04.06-1.12,1.53-1.81,2.2-3.74,3.22-9.95,6.54-15.45,6.77h0c-3.43,0-8.72-.67-12.87-2.16l-1.43-.62c-.6-.26-1-.44-1.43-.62-.21.49-.5,1.07-.8,1.68-.28.56-.55,1.11-.72,1.53-.36.82-.73,1.74-1.11,2.7-1.04,2.63-2.23,5.6-3.56,7.22-1.23,1.45-4.22,3.2-6.54,3.43-.26.02-.51.03-.75.03-2.47,0-4.29-1.01-4.79-1.49l-2.1-2.06,1.44-.1c.05,0,5.51-.44,8.79-2.84,3.49-2.55,4.63-7.4,5.18-10.82l.05-.33.31-.15c.46-.22.9-.3,1.3-.37.47-.08.83-.14,1.21-.42.73-.43.61-1.48.4-2.29,0-.02-.03-.12-.06-.22-.21-.8-.7-2.68-4.73-2.68-4.91,0-8.6,3.15-10.37,4.66-.59.51-1.42,1.32-2.37,2.27-2.57,2.53-6.09,5.99-8.68,7.41-2.34,1.3-5.11,2.02-7.81,2.02-3.03,0-5.7-.87-7.72-2.51-3.25-2.64-3.96-5.72-4.52-8.2-.15-.66-.29-1.28-.47-1.86l-.26-.84h.9c4.85,0,12.14-.61,21.64-1.82l.67-.09c.55-.06.71-.26.71-.33,0-.06-.28-.2-.68-.1l-1,.13c-2.99.4-12.09,1.61-21.55,1.8h-.57s-.09-.54-.09-.54c-.23-1.32-.23-3.24-.23-4.77v-.62l.64-.03c5.3-.2,14.52-1.2,21.45-2.32.67-.07.93-.29.95-.37-.02.01-.18-.11-.63-.11-.16,0-.33.02-.53.05-6.64,1.46-14.15,1.7-20.77,1.91l-1.1.03v-.67c0-.84-.05-1.83-.11-2.83-.06-1.02-.11-2.04-.11-2.9v-.63h.65c4.18-.1,11.25-.56,21.18-2.26l.47-.08c.17-.03.25-.18.24-.22-.01.02-.12-.05-.37-.05-.14,0-.31.02-.51.06-1.61.28-10.16,1.67-20.77,1.92l-.68.02v-.66c0-1.51-.09-2.77-.16-3.61-.04-.47-.06-.83-.06-1.06,0-.29-.04-.48-.09-.6-.05.11-.11.31-.11.6v5.3h-.65c-9.29.23-21.96-1.67-22.08-1.69-.27,0-.44.13-.46.18.02.01.17.17.65.23,10.08,1.5,17.15,2.11,21.85,1.91l.69-.03v7.26h-.66c-7.41,0-21.23-1.91-22.43-2.38-.03,0-.13-.01-.22-.01-.09,0-.27.01-.29.12-.02.17.18.45.7.58,7.59,1.56,15.4,2.04,22.05,2.31l.63.03v5.93h-.66c-8.86,0-21.49-1.69-21.62-1.7-.17-.04-.26-.05-.34-.05-.32,0-.47.19-.47.26,0,.03.13.16.54.2,7.04.89,13.98,1.69,21.69,1.9l.86.03-.25.81c-.09.28-.17.59-.26.92-.59,2.21-1.49,5.54-5.57,9.33-1.96,1.91-4.49,2.88-7.5,2.88-2.74,0-5.93-.89-8.52-2.37-2.35-1.43-5.58-4.39-8.18-6.76-1.33-1.22-2.48-2.27-3.21-2.84-2.17-2.11-4.41-3.48-6.73-4.13-1.23-.4-2.29-.59-3.2-.59-1.83,0-2.77.8-3.5,1.66-.82,1.41-1.12,2.49-.94,3.51.12.56.24.73,2.73,1.17l.5.09.04.5c.69,8,4.98,11.99,13.52,12.56l1.46.09-1.16,1.14c-2.08,2.15-4.25,3.24-6.43,3.24"/>
  <path class="cls-2" d="m120.33,161.24c.87,1.91.22,4.03-.87,5.52-2.18,2.33-5.22,3.39-8.26,2.54-1.74-.43-3.48-1.49-4.57-3.4-.65,1.49.65,2.76.44,4.03-.22.42-.65.42-.87.21-1.74-2.33-2.39-5.73-.87-8.27,1.96-3.18,5.44-4.67,9.35-4.24,2.18.43,4.57,1.48,5.65,3.6"/>
  <path class="cls-2" d="m94.02,162.51c1.52,2.33.87,5.73-.65,7.85-.22.42-.43.85-.87.42-.65-.64.22-1.27.22-2.12.22-.64.43-1.28.22-1.91-2.18,2.76-5.22,4.03-8.49,3.4-2.39-.43-4.57-2.12-5.43-4.46-.44-1.48-.22-3.18.65-4.46,2.17-2.76,6.3-3.6,9.78-2.33,1.74.43,3.7,1.91,4.57,3.61"/>
  <path class="cls-2" d="m120.12,178.64c-.22.42-.44.42-.87,1.06-1.09-.42-2.4-.85-3.7-1.27-10.88-4.24-24.79-2.97-35.01,1.27-.22-.42-.43-.64-.65-1.06,11.96-5.09,28.27-5.73,40.23,0"/>
  <path class="cls-3" d="m108.19,175.77c2.69.44,5.23,1.13,7.61,2.05,1.08.35,2.22.72,3.22,1.09.02-.01.03-.03.05-.05-3.28-1.47-6.95-2.52-10.88-3.1m-27.96,4.76l-.28-.54c-.1-.18-.19-.32-.28-.46-.12-.18-.25-.36-.37-.6l-.31-.6.64-.28c6.24-2.65,13.69-4.11,21-4.11s14.15,1.43,19.79,4.12l.6.29-.3.58c-.16.31-.33.48-.48.62-.12.11-.25.24-.43.51l-.3.44-.5-.19c-1.07-.42-2.38-.85-3.66-1.26-4.41-1.72-9.39-2.58-14.85-2.58-6.74,0-13.74,1.36-19.7,3.84l-.57.24Z"/>
  <path class="cls-2" d="m122.08,122.21c-1.96,8.49-7.4,18.03-16.31,20.36-7.17,1.91-15.44.43-20.22-5.3-3.48-4.24-5.22-9.33-5.87-14.85.44-.21.87-.21,1.31-.21.65,7.85,5,16.76,13.05,19.3,6.96,2.12,15.44,0,20.44-5.94,3.26-4.03,5.44-8.91,6.53-13.79.43,0,.65,0,1.09.42"/>
  <path class="cls-3" d="m83.69,133.39c.69,1.23,1.48,2.4,2.37,3.48.52.63,1.11,1.21,1.73,1.75-1.64-1.49-3-3.28-4.1-5.23m16.07,10.62c-6,0-11.37-2.31-14.73-6.33-3.32-4.05-5.29-9.01-6.01-15.18l-.05-.45.41-.2c.58-.28,1.12-.28,1.6-.28h.62l.05.6c.63,7.54,4.76,16.26,12.59,18.74,1.68.51,3.46.77,5.29.77,5.61,0,11-2.43,14.43-6.51,3.04-3.76,5.26-8.44,6.39-13.51l.12-.51h.54c.56,0,.97.04,1.56.61l.25.25-.08.35c-1.95,8.47-7.39,18.39-16.78,20.85-2.02.54-4.1.81-6.18.81"/>
  <path class="cls-3" d="m19.21,54.97c4.57,8.7,14.14,11.67,23.7,11.24,5.44,0,10.65-.64,15.87-1.06v.42c-2.61,7.43-4.57,15.06-5.65,22.91-13.92.43-28.05-.63-38.49-9.75-6.96-6.79-8.7-16.34-7.17-25.67,1.74-1.91,3.48-3.61,5-5.52,2.39,2.33,6.09,4.24,6.74,7.42"/>
  <path class="cls-3" d="m192.32,50.94c.44,1.49.44,2.76.65,4.03.65,10.61-3.92,20.15-13.27,25.46-10,5.94-21.53,8.06-33.71,8.27-.22-1.06-.43-2.54-.43-3.6-1.09-7-2.39-14-4.35-20.58,13.05,0,29.14,3.39,37.84-8.49,1.09-1.69,2.18-3.18,3.26-4.88,1.96-.85,3.92-2.12,5.65-2.97,1.52.63,2.83,1.91,4.35,2.76"/>
  <path class="cls-1" d="m142.51,103.97c0,4.03-1.3,8.06-5,9.97-1.74.85-3.7,1.27-5.65,1.27-.22-.42-.22-.85,0-1.27,2.83,0,5.87-1.06,7.39-3.4,1.09-1.7,1.53-3.82,1.53-5.94.43-.43,1.09-.64,1.74-.64"/>
  <path class="cls-1" d="m68.36,114.79c-.65,0-.87.21-1.95,0-4.79,0-9.79-3.82-9.57-10.18.66-.21,1.31-.21,1.74,0,0,3.61,1.52,8.7,9.57,8.7.43.85,0,.85.22,1.49"/>
</svg>