<?xml version="1.0" encoding="UTF-8"?>
<svg id="Layer_1" data-name="Layer 1" xmlns="http://www.w3.org/2000/svg" viewBox="0 0 200 200">
  <polygon points="116.09 46 170.57 47.13 167.16 59.46 112.68 58.33 116.09 46"/>
  <path d="m110.01,151.53l6.74-24.35-.8,1.21-6.29,22.62-17.94-.41-.92.61,19.2.33Zm-8.1,29.29l6.74-24.35-.8,1.21-6.28,22.61-17.95-.41-.92.61,19.21.33Zm22.83-82.53l-.8,1.21-6.28,22.62-17.94-.42-.88.6,5.73.12,13.45.23,6.73-24.35Zm4.39-15.86l-5.65-.11-3.14,11.34,5.65.1,3.13-11.33Zm3.6-13.03l-5.64-.12-3.15,11.37,5.64.12,3.15-11.37Zm-10.44,12.88l-5.11-.11-3.14,11.36,5.11.09,3.14-11.35Zm3.6-13.03l-5.1-.1-3.15,11.37,5.1.11,3.15-11.38Zm-9.91,12.9l-6.01-.12-3.15,11.38,6.02.11,3.14-11.36Zm3.6-13.03l-6.01-.13-3.15,11.38,6.02.12,3.14-11.38Zm-33.3,86.35l1.09-3.96,6.9-24.92,1.21-4.38,6.78-24.51,1.21-4.38,7.99-28.88,25.37.53-7.99,28.88-1.21,4.37-6.78,24.51-1.21,4.37-6.9,24.91-1.1,3.97-8.1,29.28-25.37-.53,8.11-29.29Z"/>
  <path d="m138.47,152.12l6.73-24.36-.8,1.21-6.29,22.62-17.95-.41-.92.61,19.21.33Zm-8.1,29.29l6.74-24.35-.81,1.2-6.29,22.62-17.95-.42-.91.61,19.21.33Zm22.83-82.53l-.8,1.21-6.29,22.61-17.95-.41-.88.59,5.73.12,13.45.23,6.74-24.35Zm4.38-15.86l-5.65-.12-3.14,11.34,5.65.1,3.14-11.33Zm3.61-13.03l-5.65-.12-3.15,11.37,5.64.12,3.15-11.37Zm-10.45,12.89l-5.11-.11-3.14,11.36,5.11.09,3.14-11.34Zm3.61-13.03l-5.11-.11-3.14,11.38,5.1.11,3.15-11.37Zm-9.91,12.9l-6.02-.12-3.14,11.38,6.01.11,3.14-11.36Zm3.61-13.03l-6.01-.12-3.15,11.38,6.02.13,3.15-11.38Zm-33.3,86.35l1.09-3.97,6.89-24.92,1.21-4.38,6.78-24.5,1.21-4.37,7.98-28.88,25.37.53-7.99,28.88-1.21,4.37-6.78,24.51-1.2,4.37-6.9,24.92-1.09,3.97-8.11,29.29-25.36-.53,8.11-29.29Z"/>
  <polygon points="68.45 32.18 106.98 56.92 110.43 44.56 71.89 19.82 68.45 32.18"/>
  <path d="m98.14,77.22l-4.25-2.73,3.18-11.4,4.26,2.73-3.18,11.4Zm-3.64,13.07l-4.25-2.75,3.18-11.39,4.26,2.73-3.18,11.4Zm-12.12,26.36l-9.49-6.15,6.8-24.42v1.43s-6.31,22.69-6.31,22.69l12.71,8.11.33.94-4.05-2.6Zm-17.55,22.81l6.8-24.42v1.44s-6.31,22.69-6.31,22.69l12.71,8.12.35.97-13.55-8.78Zm-8.18,29.37l6.8-24.42v1.43s-6.31,22.69-6.31,22.69l12.71,8.11.34.97-13.55-8.78Zm27.48-98.64l3.98,2.56-3.17,11.37-3.98-2.58,3.17-11.35Zm3.64-13.07l3.99,2.56-3.18,11.41-3.99-2.56,3.18-11.4Zm1.2,16.18l3.61,2.31-3.18,11.39-3.6-2.33,3.17-11.37Zm3.64-13.07l3.61,2.32-3.18,11.4-3.61-2.31,3.18-11.41Zm-13.09,93.89l1.1-3.98,6.96-24.98,1.22-4.39,6.85-24.57,1.22-4.39,8.07-28.96-17.95-11.52-8.06,28.96-1.23,4.39-6.84,24.57-1.22,4.38-6.96,24.98-1.11,3.98-8.18,29.37,17.95,11.52,8.18-29.36Z"/>
  <path d="m78.01,64.3l-4.26-2.73,3.18-11.4,4.26,2.73-3.18,11.4Zm-3.64,13.07l-4.26-2.75,3.17-11.38,4.26,2.73-3.18,11.41Zm-12.12,26.36l-9.49-6.15,6.8-24.42-.02,1.44-6.29,22.69,12.72,8.11.33.94-4.05-2.6Zm-17.55,22.81l6.8-24.42v1.44s-6.31,22.69-6.31,22.69l12.71,8.11.34.97-13.55-8.78Zm-8.18,29.37l6.8-24.42v1.43s-6.31,22.69-6.31,22.69l12.71,8.11.34.97-13.55-8.78Zm27.48-98.64l3.99,2.56-3.17,11.37-3.98-2.58,3.16-11.35Zm3.63-13.06l3.99,2.56-3.18,11.41-3.99-2.56,3.18-11.41Zm1.2,16.17l3.62,2.32-3.17,11.38-3.61-2.33,3.17-11.37Zm1.11,21.84l-4.85,17.39-7.21-4.7,4.88-17.37,7.18,4.67Zm2.53-34.9l3.61,2.32-3.18,11.41-3.61-2.32,3.18-11.41Zm-13.09,93.89l1.1-3.98,6.96-24.98,1.22-4.38,6.85-24.57,1.22-4.39,8.06-28.96-17.94-11.52-8.07,28.96-1.22,4.39-6.84,24.58-1.22,4.38-6.96,24.98-1.11,3.97-8.18,29.37,17.95,11.52,8.18-29.37Z"/>
  <rect x="128.11" y="19.57" width="0" height=".2"/>
  <path d="m128.14,19.57l.04-.12-.04.12Z"/>
  <path d="m167.63,60.3l-56.05-1.04,4.01-14.45,53.15,1.1v-.03s2.9-.04,2.9-.04l-4.01,14.47Zm-62.08,126.04l33.88-122.46,26.78.56-33.89,122.46-26.78-.56Zm-28.56-.59l33.87-122.47,26.9.56-33.88,122.47-26.9-.56ZM110.57,47.38h-.06l-.69,2.5-2.52,8.37-39.59-25.56,4.03-14.52,1.36,1.09-.02.1,34.02,21.84h.02s4.44,2.87,4.44,2.87l-.99,3.31Zm-38.88,137.5l-19.03-12.22,34.19-122.79,19.03,12.22-34.2,122.79Zm-20.21-12.98l-18.94-12.16,34.2-122.79,18.94,12.16-34.2,122.79ZM124.42,13.04l6.41-.4-2.8,11.27-6.89,1.07-2.72-3.34,3.07-11.59,2.94,2.99Zm15.29,174.26l-3.36-1.93,35.26-127.48,1.85.04,2.54-9.19-1.85-.04.69-2.48-5.06-4.02.48-1.75-2.35-2.21.92-3.31-37.36-18.84,1.05-3.74,4.33-.77-8.02-9.22-10.84,4.5,2.31,2.24-1.19,4.25-40.87-3.6-1.12,4.04-2.48.1-.68,2.42-4.59.69-.4,1.42-1.61.23-2.56,9.21,1.31.84L30.41,156.74l-3.19-.12-2.15,7.72,45.57,30.37,66.94.3,2.13-7.7Z"/>
</svg>