<?xml version="1.0" encoding="UTF-8"?>
<svg id="Layer_1" data-name="Layer 1" xmlns="http://www.w3.org/2000/svg" viewBox="0 0 200 200">
  <defs>
    <style>
      .cls-1 {
        fill: #fff;
      }

      .cls-2 {
        fill: #231f20;
      }
    </style>
  </defs>
  <path class="cls-2" d="m190.16,134.15c0,2.1-1.7,3.8-3.8,3.8H14.3c-2.1,0-3.8-1.7-3.8-3.8v-69.01c0-2.1,1.7-3.8,3.8-3.8h69.48c2.1,0,3.8,1.7,3.8,3.8v21.14h.05v4.6c0,1.91,1.42,3.49,3.26,3.75h95.46c.19,0,.37.02.54.05,1.85.26,3.27,1.84,3.27,3.76v35.71Zm-1.3-80.15H11.46c-4.3,0-7.79,3.49-7.79,7.79v74.42c0,4.3,3.49,7.79,7.79,7.79h177.4c4.3,0,7.79-3.49,7.79-7.79V61.79c0-4.3-3.49-7.79-7.79-7.79"/>
  <path class="cls-2" d="m56.96,104.93h-11.23v-11.23c0-.9-.73-1.63-1.63-1.63h-8.59c-.9,0-1.63.73-1.63,1.63v11.23h-11.23c-.9,0-1.63.73-1.63,1.63v8.59c0,.9.73,1.63,1.63,1.63h11.23v11.23c0,.9.73,1.63,1.63,1.63h8.59c.9,0,1.63-.73,1.63-1.63v-11.23h11.23c.9,0,1.63-.73,1.63-1.63v-8.59c0-.9-.73-1.63-1.63-1.63"/>
  <path class="cls-2" d="m156.68,121.19c0,4.47-3.62,8.09-8.09,8.09s-8.09-3.62-8.09-8.09,3.62-8.09,8.09-8.09,8.09,3.62,8.09,8.09"/>
  <path class="cls-2" d="m180.04,121.19c0,4.47-3.62,8.09-8.09,8.09s-8.09-3.62-8.09-8.09,3.62-8.09,8.09-8.09,8.09,3.62,8.09,8.09"/>
  <path class="cls-1" d="m127.64,120.52c0,4.9-3.97,8.87-8.87,8.87h-37.11c-4.9,0-8.87-3.97-8.87-8.87s3.97-8.87,8.87-8.87h37.11c4.9,0,8.87,3.97,8.87,8.87"/>
  <path class="cls-2" d="m81.67,114.4c-3.38,0-6.12,2.74-6.12,6.12s2.74,6.12,6.12,6.12h37.1c3.37,0,6.12-2.75,6.12-6.12s-2.75-6.12-6.12-6.12h-37.1Zm37.1,17.73h-37.1c-6.4,0-11.61-5.21-11.61-11.61s5.21-11.61,11.61-11.61h37.1c6.4,0,11.61,5.21,11.61,11.61s-5.21,11.61-11.61,11.61"/>
  <path class="cls-2" d="m96.34,120.52c0,1.33-1.08,2.41-2.41,2.41h-10.1c-1.33,0-2.41-1.08-2.41-2.41s1.08-2.41,2.41-2.41h10.1c1.33,0,2.41,1.08,2.41,2.41"/>
  <path class="cls-2" d="m118.45,120.52c0,1.33-1.08,2.41-2.41,2.41h-10.1c-1.33,0-2.41-1.08-2.41-2.41s1.08-2.41,2.41-2.41h10.1c1.34,0,2.41,1.08,2.41,2.41"/>
</svg>