<?xml version="1.0" encoding="utf-8"?>
<!-- Generator: Adobe Illustrator 27.1.1, SVG Export Plug-In . SVG Version: 6.00 Build 0)  -->
<svg version="1.1" id="Layer_1" xmlns="http://www.w3.org/2000/svg" xmlns:xlink="http://www.w3.org/1999/xlink" x="0px" y="0px"
	 viewBox="0 0 700 700" style="enable-background:new 0 0 700 700;" xml:space="preserve">
<style type="text/css">
	.st0{fill:none;stroke:#FFFFFF;stroke-width:8;stroke-miterlimit:10;}
</style>
<g>
	<path d="M653.8,404.7v156.7c0,5.7-0.6,11.4-1.7,16.9v0c-3.8,18.6-14.2,35.7-28.9,48c-2.1,1.7-4.3,3.4-6.6,4.9
		c-6.9,4.7-14.3,8.3-22.2,10.7c-2.6,0.8-5.3,1.5-8,2h0c-5.5,1.2-11.2,1.7-16.9,1.7H130.5c-3.3,0-6.7-0.2-10.7-0.8
		c-0.9-0.1-1.9-0.3-2.8-0.4h0c-2.9-0.5-5.7-1.1-8.5-1.8l-1.9-0.5h0c-2.8-0.8-5.6-1.8-8.3-3c-0.5-0.2-1-0.4-1.5-0.6c0,0,0,0,0,0
		l-1.1-0.5c-0.3-0.2-0.6-0.3-1-0.5c-1-0.4-1.9-0.9-2.9-1.4c-0.1-0.1-0.2-0.1-0.3-0.2c-1.5-0.8-3-1.6-4.4-2.5l-1.6-1c0,0,0,0,0,0
		c-2.7-1.7-5.3-3.6-7.7-5.7c-0.6-0.5-1.2-0.9-1.7-1.4c-0.6-0.5-1.1-0.9-1.7-1.4c0,0,0,0,0,0c-1.8-1.7-3.6-3.4-5.3-5.2l-0.6-0.7
		c0,0-0.1-0.1-0.1-0.1c0,0,0,0,0,0c-1.9-2.1-3.8-4.4-5.5-6.7c-0.3-0.3-0.4-0.7-0.7-1.1c-1.1-1.5-2-3.1-3-4.6
		c-0.8-1.2-1.6-2.4-2.3-3.6c-0.2-0.4-0.4-0.8-0.6-1.2c-0.2-0.4-0.4-0.7-0.6-1c-0.2-0.4-0.3-0.7-0.4-1.1c-5.8-11.5-9-24.2-9-37.3
		V404.7c0-46.5,37.8-84.3,84.3-84.3h23.7l93.1-55.1c8.3-4.9,17.7-7.6,27.3-8.1v-27.3c0-11.2,7.6-20.6,17.9-23.6v-63.3
		c0-11.5,9.4-20.9,20.9-20.9h73.3c11.5,0,20.9,9.4,20.9,20.9l0,63.3c4,1.2,7.7,3.2,10.6,6.2c4.7,4.7,7.2,10.9,7.2,17.5v27.3
		c9.6,0.5,19,3.2,27.3,8.1l93.1,55.1h23.9c0.5,0,0.9,0.1,1.4,0.1c2.3,0,4.6,0.1,6.8,0.4c0.7,0.1,1.4,0.2,2,0.3
		c2.1,0.3,4.1,0.5,6.1,0.9c0.8,0.2,1.6,0.4,2.4,0.6c1.9,0.4,3.7,0.8,5.5,1.4c0.9,0.3,1.8,0.6,2.7,0.9c1.7,0.6,3.4,1.1,5,1.8
		c1,0.4,1.9,0.9,2.9,1.4c1.5,0.7,3,1.3,4.5,2.1c1,0.5,2,1.2,3,1.8c1.3,0.8,2.7,1.6,4,2.4c1,0.7,2,1.5,3,2.2c1.2,0.9,2.5,1.8,3.7,2.7
		c1,0.8,1.9,1.7,2.9,2.6c1,0.9,2.1,1.8,3.2,2.8c0.1,0.1,0.2,0.2,0.4,0.4c2.1,2.1,3.8,4,5.4,6c0.1,0.1,0.4,0.5,0.5,0.7
		c1.5,1.9,3,3.8,4.3,5.8h0c0,0,0,0,0,0c0.2,0.3,0.4,0.6,0.6,1c1.2,1.9,2.3,3.6,3.3,5.4c0.1,0.2,0.2,0.3,0.3,0.5h0l0,0
		c0.2,0.5,0.5,0.9,0.7,1.4c0,0,0.4,0.7,0.4,0.8c0.9,1.7,1.7,3.4,2.5,5.2c0.3,0.6,0.5,1.3,0.7,1.9l0.6,1.7c0.2,0.5,0.4,1,0.6,1.6
		c0.3,0.9,0.7,1.7,0.9,2.6l0,0c0.2,0.7,0.4,1.5,0.6,2.2l0.5,2c0.3,1.2,0.7,2.5,1,3.8c0.3,1.3,0.4,2.6,0.6,3.9l0.3,2.1
		c0.1,0.8,0.2,1.5,0.3,2.3c0,0.3,0,0.5,0,0.7C653.7,399.5,653.8,402.1,653.8,404.7L653.8,404.7z M639.6,561.4V404.7
		c0-2.4-0.1-4.8-0.4-7.1c-0.1-0.4-0.1-0.9-0.2-1.3l-0.2-1.4c0-0.1,0-0.1,0-0.2l-0.1-1c-0.1-1-0.3-2-0.5-3c-0.2-1-0.5-1.9-0.7-2.9
		l-0.3-1.1c0,0,0-0.1,0-0.1l-0.3-1.2c-0.1-0.4-0.2-0.9-0.4-1.3c-0.3-1.1-0.8-2.2-1.2-3.2l-0.3-0.9c0,0,0-0.1,0-0.1l-0.4-1.2
		c-0.1-0.4-0.2-0.7-0.4-1.1c-0.6-1.5-1.3-2.9-2.1-4.3l-0.6-1.3c-0.3-0.6-0.6-1.1-0.9-1.6c-0.7-1.2-1.5-2.5-2.2-3.7
		c-0.1-0.1-0.4-0.7-0.5-0.8c-0.2-0.3-0.4-0.5-0.6-0.8c-1-1.5-2.1-2.9-3.2-4.3c-0.1-0.1-0.3-0.4-0.4-0.6c-1.3-1.6-2.8-3.2-4.2-4.7h0
		c-13.5-13.5-31-20.8-49.6-20.9c-0.1,0-0.2,0-0.3,0h-78.9c-5.1,37.1-36.4,75.7-77.5,75.7H287c-41.2,0-72.5-38.6-77.5-75.7h-79
		c-38.6,0-70.1,31.4-70.1,70.1v156.7c0,10.3,2.3,20.5,6.7,29.7c0,0,0,0.1,0.1,0.1c0.4,0.4,0.7,0.8,1,1.3c0.1,0.2,0.3,0.4,0.5,0.6
		c0.3,0.7,0.6,1.4,0.7,2.2c0,0.1,0.1,0.1,0.1,0.2c1.5,2.6,3.1,5,4.9,7.4c1.4,1.9,2.9,3.7,4.4,5.5c0,0,0.6,0.6,0.6,0.6c0,0,0,0,0,0
		c0,0,0.1,0.1,0.1,0.1c1.6,1.7,3.4,3.3,5.2,4.9c2.6,2.3,5.3,4.4,8.2,6.3c0.1,0,0.1,0.1,0.2,0.1l0.7,0.4c2.5,1.5,4.5,2.6,6.5,3.6
		c0.2,0.1,0.5,0.3,0.7,0.4h0c0.1,0,0.7,0.4,0.8,0.4c0.9,0.4,1.8,0.8,2.7,1.1c1.9,0.7,3.8,1.5,5.7,2.1c0.1,0,0.1,0,0.2,0.1l1.6,0.4h0
		c2.3,0.6,4.6,1.1,7,1.5c0.8,0.1,1.6,0.3,2.4,0.4l0,0c3.4,0.4,6.2,0.7,8.9,0.7h439.1c4.7,0,9.5-0.5,14.1-1.4
		c6.7-1.4,13.1-3.7,19.2-7c2-1.1,3.9-2.3,5.9-3.6h0c11.3-7.7,20.2-18.6,25.5-31.1c1.8-4.2,3.1-8.5,4-12.9c0.3-1.4,0.4-2.9,0.7-4.3
		c0.1-0.9,0.3-1.8,0.4-2.7C639.5,566.1,639.6,563.7,639.6,561.4L639.6,561.4z M484.1,320.4H518l-72.4-42.9c-6.1-3.6-13-5.8-20-6.3
		v49.1h46.6c2,0,3.8,0.8,5.2,2.2c0.3,0.3,0.6,0.7,0.8,1c0.3-0.5,0.7-0.9,1.1-1.3c0,0,0,0,0-0.1c0.6-0.5,1.2-0.9,2-1.3
		c0.2-0.1,0.4-0.1,0.5-0.2C482.4,320.6,483.2,320.4,484.1,320.4z M464,334.6H236c4.9,24.7,25.8,49.5,51,49.5h126
		C438.2,384.1,459.2,359.3,464,334.6z M411.3,320.4v-90.6c0-2.8-1.1-5.4-3.1-7.4c-2-2-4.6-3.1-7.4-3.1H299.5
		c-6.1,0-10.8,4.7-10.8,10.5v90.6L411.3,320.4L411.3,320.4z M393.4,205.1v-62.2c0-3.7-3-6.7-6.7-6.7h-73.4c-3.7,0-6.7,3-6.7,6.7
		v62.2H393.4L393.4,205.1z M274.5,320.4v-49.1c-7.1,0.5-13.9,2.6-20.1,6.3L182,320.4h33.9c0.8,0,1.6,0.2,2.4,0.5
		c0.2,0.1,0.4,0.1,0.5,0.2c0.7,0.3,1.4,0.7,2,1.3c0,0,0,0,0,0c0.4,0.4,0.8,0.8,1.1,1.3c0.2-0.4,0.5-0.7,0.8-1
		c1.3-1.4,3.2-2.2,5.2-2.2L274.5,320.4L274.5,320.4z"/>
	<path d="M639.6,404.7v156.7c0,2.3-0.1,4.7-0.4,7c-0.1,0.9-0.3,1.8-0.4,2.7c-0.2,1.4-0.4,2.9-0.7,4.3c-0.9,4.4-2.3,8.8-4,12.9
		c-5.3,12.5-14.2,23.4-25.5,31.1h0c-1.9,1.3-3.9,2.5-5.9,3.6c-6,3.3-12.4,5.6-19.2,7c-4.6,1-9.3,1.4-14.1,1.4H130.5
		c-2.7,0-5.5-0.2-8.9-0.6l0,0c-0.8-0.1-1.5-0.2-2.4-0.4c-2.4-0.4-4.7-0.9-7-1.5h0l-1.6-0.4c-0.1,0-0.1,0-0.2-0.1
		c-1.9-0.6-3.9-1.3-5.7-2.1c-0.9-0.4-1.8-0.7-2.7-1.1c-0.1,0-0.7-0.4-0.8-0.4h0c-0.2-0.1-0.5-0.3-0.7-0.4c-2.1-1-4.1-2.1-6.5-3.6
		l-0.7-0.4c-0.1,0-0.1-0.1-0.2-0.1c-2.9-1.9-5.6-4-8.2-6.3c-1.8-1.6-3.6-3.2-5.2-4.9c0,0-0.1-0.1-0.1-0.1c0,0,0,0,0,0
		c0,0-0.6-0.6-0.6-0.6c-1.6-1.8-3.1-3.6-4.4-5.5c-1.8-2.4-3.4-4.8-4.9-7.4c0-0.1-0.1-0.1-0.1-0.2c-0.1-0.8-0.3-1.5-0.7-2.2
		c-0.1-0.2-0.3-0.4-0.5-0.6c-0.3-0.5-0.6-0.9-1-1.3c0,0,0-0.1-0.1-0.1c-4.4-9.2-6.7-19.4-6.7-29.7V404.7c0-38.6,31.4-70.1,70.1-70.1
		h79c5.1,37.1,36.4,75.7,77.5,75.7h126c41.1,0,72.5-38.6,77.5-75.7h78.9c0.1,0,0.2,0,0.3,0c18.6,0,36.1,7.4,49.6,20.9h0
		c1.5,1.5,2.9,3.1,4.2,4.7c0.1,0.1,0.4,0.5,0.4,0.6c1.1,1.4,2.2,2.8,3.2,4.3c0.2,0.3,0.4,0.5,0.6,0.8c0.1,0.1,0.4,0.7,0.5,0.8
		c0.8,1.2,1.5,2.4,2.2,3.7c0.3,0.5,0.6,1,0.9,1.6l0.6,1.3c0.7,1.4,1.4,2.8,2.1,4.3c0.1,0.3,0.3,0.7,0.4,1.1l0.4,1.2c0,0,0,0.1,0,0.1
		l0.3,0.9c0.4,1.1,0.8,2.1,1.2,3.2c0.1,0.4,0.2,0.9,0.4,1.3l0.3,1.2c0,0,0,0.1,0,0.1l0.3,1.1c0.3,1,0.5,1.9,0.7,2.9
		c0.2,1,0.3,2,0.5,3l0.1,1c0,0.1,0,0.1,0,0.2l0.2,1.4c0.1,0.4,0.1,0.9,0.2,1.3C639.5,399.9,639.6,402.3,639.6,404.7L639.6,404.7z
		 M490,532.8c24.4-3.4,42.8-24.5,42.8-49.2c0-24.6-18.3-45.7-43.3-49.2h-0.1c0,0,0,0,0,0h-0.1c-2-0.3-4.1-0.4-6.2-0.4
		c-0.2,0-0.4,0.1-0.6,0.1c-8,0.1-16.1,2.1-23.1,5.9c-1.4,0.8-2.8,1.6-4.1,2.5c-2.6,1.8-5.1,3.8-7.3,6.1c0,0-0.1,0.1-0.1,0.1
		c-1.7,1.7-3.1,3.6-4.5,5.4c-0.5,0.7-1.1,1.2-1.6,1.9c-1.8,2.6-3.3,5.4-4.5,8.4h0c-2.6,6.1-3.9,12.7-3.9,19.3c0,1.7,0.1,3.3,0.2,5
		c0.5,4.9,1.7,9.7,3.7,14.3h0c7.8,18.4,25.8,30.4,45.8,30.4c1.8,0,3.6-0.2,5.7-0.4c0.2,0,0.4,0,0.6,0c0,0,0.1,0,0.1,0
		C489.8,532.8,489.9,532.8,490,532.8L490,532.8z M379.9,602.9c23.7-11.6,38.4-35.2,38.4-61.5c0-37.8-30.7-68.6-68.6-68.6
		s-68.6,30.8-68.6,68.6c0,26.3,14.7,49.8,38.4,61.5c4.8,2.3,9.7,4.1,14.7,5.3c5,1.2,10.2,1.8,15.4,1.8c2.6,0,5.2-0.1,7.8-0.4
		C365.2,608.7,372.7,606.4,379.9,602.9L379.9,602.9z M223.6,532.8c24.4-3.4,42.8-24.5,42.8-49.2c0-24.6-18.3-45.7-43.3-49.2
		c0,0,0,0,0,0H223c-2.1-0.3-4.2-0.4-6.3-0.4c-27.4,0-49.7,22.3-49.7,49.7c0,5,0.8,10,2.2,14.8c1,3.1,2.2,6.1,3.8,8.9
		c4.4,8,10.7,14.5,18.3,19c7.5,4.5,16.3,7,25.4,7c1.8,0,3.6-0.1,5.7-0.4c0.2,0,0.4,0,0.6-0.1c0,0,0.1,0,0.1,0
		C223.4,532.8,223.5,532.8,223.6,532.8L223.6,532.8z"/>
	<path d="M532.8,483.6c0,24.6-18.4,45.8-42.8,49.2c-0.2,0-0.3,0-0.4,0c0,0-0.1,0-0.1,0c-0.2,0-0.4,0-0.6,0c-2.1,0.2-3.9,0.4-5.7,0.4
		c-20,0-38-11.9-45.8-30.4h0c-1.9-4.6-3.2-9.4-3.7-14.3c-0.2-1.6-0.2-3.3-0.2-5c0-6.7,1.3-13.2,3.9-19.3h0c1.2-3,2.8-5.8,4.5-8.4
		c0.5-0.7,1.1-1.2,1.6-1.9c1.4-1.9,2.8-3.8,4.5-5.4c0,0,0.1-0.1,0.1-0.1c2.2-2.2,4.7-4.3,7.3-6.1c1.3-0.9,2.7-1.7,4.1-2.5
		c7-3.8,15.1-5.8,23.1-5.9c0.2,0,0.4-0.1,0.6-0.1c2.1,0,4.1,0.2,6.2,0.4h0.1l0,0h0.1C514.5,437.9,532.8,459,532.8,483.6L532.8,483.6
		z M518.6,483.6c0-17.6-13.1-32.6-30.5-35.1c-0.4-0.1-0.6-0.1-1-0.1c-1.3-0.1-2.6-0.3-4-0.3c-3,0-5.9,0.4-8.7,1.1
		c-2.8,0.7-5.6,1.8-8.2,3.2c-1,0.5-2,1.1-2.9,1.8c-1.9,1.3-3.6,2.7-5.3,4.3c-0.9,0.9-1.7,2-2.5,3c-2,2.5-3.8,5.2-5.1,8.3
		c-1.9,4.4-2.8,9-2.8,13.8s0.9,9.4,2.8,13.8c4.9,11.5,15.3,19.5,27.4,21.3c1.7,0.3,3.5,0.4,5.3,0.4c1.5,0,3-0.1,4.5-0.3
		C505.5,516.3,518.6,501.2,518.6,483.6L518.6,483.6z"/>
	<path d="M281.6,334.6H464c-4.9,24.7-25.8,49.5-51,49.5H287c-25.2,0-46.1-24.8-51-49.5H281.6z"/>
	<path d="M418.3,541.4c0,26.3-14.7,49.8-38.4,61.5c-7.2,3.5-14.7,5.7-22.4,6.6c-2.6,0.3-5.2,0.4-7.8,0.4c-5.2,0-10.4-0.6-15.4-1.8
		c-5-1.2-10-3-14.7-5.3c-23.7-11.6-38.4-35.2-38.4-61.5c0-37.8,30.8-68.6,68.6-68.6S418.3,503.6,418.3,541.4L418.3,541.4z
		 M401.9,556.5c1.4-4.8,2.1-9.9,2.1-15.1c0-15-6.1-28.6-15.9-38.4c-9.8-9.8-23.4-15.9-38.4-15.9c-30,0-54.3,24.4-54.4,54.4
		c0,20.8,11.7,39.5,30.4,48.7c15.1,7.5,32.7,7.5,47.9,0l0,0C387.7,583.2,397.8,571,401.9,556.5L401.9,556.5z"/>
	<path d="M266.4,483.6c0,24.6-18.4,45.8-42.8,49.2c-0.2,0-0.3,0-0.4,0.1c0,0-0.1,0-0.1,0c-0.2,0-0.4,0-0.6,0.1
		c-2.1,0.2-3.9,0.4-5.7,0.4c-9.1,0-17.9-2.5-25.4-7c-7.6-4.5-13.9-11-18.3-19c-1.5-2.8-2.8-5.8-3.8-8.9c-1.5-4.8-2.2-9.7-2.2-14.8
		c0-27.4,22.3-49.7,49.7-49.7c2.1,0,4.2,0.2,6.3,0.4h0.1l0,0C248.1,437.9,266.4,459.1,266.4,483.6L266.4,483.6z M252.2,483.6
		c0-17.5-13.1-32.6-30.5-35.1c-0.4,0-0.6-0.1-1-0.1c-1.3-0.2-2.6-0.3-4-0.3c-19.6,0-35.5,15.9-35.5,35.5c0,3.6,0.5,7.1,1.6,10.5
		c0.7,2.2,1.6,4.3,2.7,6.4c4.7,8.6,12.6,14.7,21.7,17.3c3.1,0.8,6.2,1.3,9.5,1.3c1.5,0,3-0.1,4.5-0.3
		C239.1,516.3,252.2,501.2,252.2,483.6L252.2,483.6z"/>
</g>
<path class="st0" d="M639.6,561.4V404.7c0-2.4-0.1-4.8-0.4-7.1c-0.1-0.4-0.1-0.9-0.2-1.3l-0.2-1.4c0-0.1,0-0.1,0-0.2l-0.1-1
	c-0.1-1-0.3-2-0.5-3c-0.2-1-0.5-1.9-0.7-2.9l-0.3-1.1c0,0,0-0.1,0-0.1l-0.3-1.2c-0.1-0.4-0.2-0.9-0.4-1.3c-0.3-1.1-0.8-2.2-1.2-3.2
	l-0.3-0.9c0,0,0-0.1,0-0.1l-0.4-1.2c-0.1-0.4-0.2-0.7-0.4-1.1c-0.6-1.5-1.3-2.9-2.1-4.3l-0.6-1.3c-0.3-0.6-0.6-1.1-0.9-1.6
	c-0.7-1.2-1.5-2.5-2.2-3.7c-0.1-0.1-0.4-0.7-0.5-0.8c-0.2-0.3-0.4-0.5-0.6-0.8c-1-1.5-2.1-2.9-3.2-4.3c-0.1-0.1-0.3-0.4-0.4-0.6
	c-1.3-1.6-2.8-3.2-4.2-4.7h0c-13.5-13.5-31-20.8-49.6-20.9c-0.1,0-0.2,0-0.3,0h-78.9c-5.1,37.1-36.4,75.7-77.5,75.7H287
	c-41.2,0-72.5-38.6-77.5-75.7h-79c-38.6,0-70.1,31.4-70.1,70.1v156.7c0,10.3,2.3,20.5,6.7,29.7c0,0,0,0.1,0.1,0.1
	c0.4,0.4,0.7,0.8,1,1.3c0.1,0.2,0.3,0.4,0.5,0.6c0.3,0.7,0.6,1.4,0.7,2.2c0,0.1,0.1,0.1,0.1,0.2c1.5,2.6,3.1,5,4.9,7.4
	c1.4,1.9,2.9,3.7,4.4,5.5c0,0,0.6,0.6,0.6,0.6c0,0,0,0,0,0c0,0,0.1,0.1,0.1,0.1c1.6,1.7,3.4,3.3,5.2,4.9c2.6,2.3,5.3,4.4,8.2,6.3
	c0.1,0,0.1,0.1,0.2,0.1l0.7,0.4c2.5,1.5,4.5,2.6,6.5,3.6c0.2,0.1,0.5,0.3,0.7,0.4h0c0.1,0,0.7,0.4,0.8,0.4c0.9,0.4,1.8,0.8,2.7,1.1
	c1.9,0.7,3.8,1.5,5.7,2.1c0.1,0,0.1,0,0.2,0.1l1.6,0.4h0c2.3,0.6,4.6,1.1,7,1.5c0.8,0.1,1.6,0.3,2.4,0.4l0,0
	c3.4,0.4,6.2,0.7,8.9,0.7h439.1c4.7,0,9.5-0.5,14.1-1.4c6.7-1.4,13.1-3.7,19.2-7c2-1.1,3.9-2.3,5.9-3.6h0
	c11.3-7.7,20.2-18.6,25.5-31.1c1.8-4.2,3.1-8.5,4-12.9c0.3-1.4,0.4-2.9,0.7-4.3c0.1-0.9,0.3-1.8,0.4-2.7
	C639.5,566.1,639.6,563.7,639.6,561.4L639.6,561.4z"/>
</svg>
